<svg xmlns="http://www.w3.org/2000/svg" xmlns:xlink="http://www.w3.org/1999/xlink" width="500" zoomAndPan="magnify" viewBox="0 0 375 374.999991" height="500" preserveAspectRatio="xMidYMid meet" version="1.0"><defs><g/><clipPath id="85149a51e4"><path d="M 146.394531 205.058594 L 157.222656 205.058594 L 157.222656 215.882812 L 146.394531 215.882812 Z M 146.394531 205.058594 " clip-rule="nonzero"/></clipPath><clipPath id="39eb1231c2"><path d="M 151.808594 205.058594 C 148.820312 205.058594 146.394531 207.480469 146.394531 210.46875 C 146.394531 213.460938 148.820312 215.882812 151.808594 215.882812 C 154.796875 215.882812 157.222656 213.460938 157.222656 210.46875 C 157.222656 207.480469 154.796875 205.058594 151.808594 205.058594 Z M 151.808594 205.058594 " clip-rule="nonzero"/></clipPath><clipPath id="0f6dc81614"><path d="M 123.960938 123.15625 L 250.710938 123.15625 L 250.710938 252.15625 L 123.960938 252.15625 Z M 123.960938 123.15625 " clip-rule="nonzero"/></clipPath></defs><rect x="-37.5" width="450" fill="#ffffff" y="-37.499999" height="449.999989" fill-opacity="1"/><rect x="-37.5" width="450" fill="#edeae9" y="-37.499999" height="449.999989" fill-opacity="1"/><g clip-path="url(#85149a51e4)"><g clip-path="url(#39eb1231c2)"><path fill="#000000" d="M 146.394531 205.058594 L 157.222656 205.058594 L 157.222656 215.882812 L 146.394531 215.882812 Z M 146.394531 205.058594 " fill-opacity="1" fill-rule="nonzero"/></g></g><g clip-path="url(#0f6dc81614)"><path fill="#000000" d="M 211.433594 212.195312 L 250.476562 251.421875 C 250.605469 251.550781 250.632812 251.703125 250.566406 251.871094 C 250.496094 252.039062 250.371094 252.125 250.191406 252.125 C 230.117188 251.753906 212.316406 245.578125 196.785156 233.597656 C 192.742188 230.488281 187.640625 225.78125 181.480469 219.476562 C 172.488281 210.292969 163.269531 201.007812 153.820312 191.628906 C 153.121094 190.925781 153.265625 190.570312 154.253906 190.5625 C 164.277344 190.480469 174.628906 190.496094 185.308594 190.605469 C 190.539062 190.660156 194.597656 190.09375 197.484375 188.910156 C 214.449219 181.96875 214.851562 158.867188 198.0625 151.242188 C 195.652344 150.148438 192.277344 149.601562 187.933594 149.609375 C 176.453125 149.628906 164.660156 149.675781 152.554688 149.753906 C 148.1875 149.78125 144.507812 149.265625 141.507812 148.203125 C 131.082031 144.507812 124.328125 135.023438 123.957031 123.851562 C 123.953125 123.699219 124.003906 123.570312 124.109375 123.464844 C 124.210938 123.355469 124.335938 123.300781 124.484375 123.300781 C 145.84375 123.425781 165.625 123.414062 183.816406 123.261719 C 191.859375 123.191406 197.960938 123.722656 202.117188 124.855469 C 226.976562 131.589844 242.242188 157.855469 234.832031 182.847656 C 231.097656 195.445312 223.328125 205.015625 211.515625 211.554688 C 211.398438 211.621094 211.332031 211.71875 211.316406 211.851562 C 211.296875 211.988281 211.335938 212.101562 211.433594 212.195312 Z M 211.433594 212.195312 " fill-opacity="1" fill-rule="nonzero"/></g><g fill="#000000" fill-opacity="1"><g transform="translate(156.653032, 233.881076)"><g><path d="M -10.109375 -15.40625 C -9.210938 -15.40625 -8.40625 -15.164062 -7.6875 -14.6875 C -6.96875 -14.207031 -6.441406 -13.503906 -6.109375 -12.578125 L 0 -15.828125 L 0 -10.578125 L -5.3125 -7.984375 L -5.3125 -6.25 L 0 -6.25 L 0 -1.5625 L -14.578125 -1.5625 L -14.578125 -10.484375 C -14.578125 -11.535156 -14.375 -12.429688 -13.96875 -13.171875 C -13.570312 -13.910156 -13.03125 -14.46875 -12.34375 -14.84375 C -11.65625 -15.21875 -10.910156 -15.40625 -10.109375 -15.40625 Z M -9.921875 -10.640625 C -10.296875 -10.640625 -10.609375 -10.507812 -10.859375 -10.25 C -11.117188 -10 -11.25 -9.691406 -11.25 -9.328125 L -11.25 -6.25 L -8.5625 -6.25 L -8.5625 -9.328125 C -8.5625 -9.691406 -8.691406 -10 -8.953125 -10.25 C -9.210938 -10.507812 -9.535156 -10.640625 -9.921875 -10.640625 Z M -9.921875 -10.640625 "/></g></g></g><g fill="#000000" fill-opacity="1"><g transform="translate(156.653032, 217.397964)"><g><path d="M -11.4375 -7.0625 C -11.4375 -9.019531 -10.9375 -10.5625 -9.9375 -11.6875 C -8.945312 -12.8125 -7.5 -13.375 -5.59375 -13.375 C -3.6875 -13.375 -2.234375 -12.8125 -1.234375 -11.6875 C -0.242188 -10.5625 0.25 -9.019531 0.25 -7.0625 C 0.25 -5.09375 -0.242188 -3.550781 -1.234375 -2.4375 C -2.222656 -1.320312 -3.675781 -0.765625 -5.59375 -0.765625 C -7.507812 -0.765625 -8.960938 -1.320312 -9.953125 -2.4375 C -10.941406 -3.550781 -11.4375 -5.09375 -11.4375 -7.0625 Z M -8.578125 -7.0625 C -8.578125 -5.675781 -7.78125 -4.984375 -6.1875 -4.984375 L -4.984375 -4.984375 C -3.398438 -4.984375 -2.609375 -5.675781 -2.609375 -7.0625 C -2.609375 -8.457031 -3.398438 -9.15625 -4.984375 -9.15625 L -6.1875 -9.15625 C -7.78125 -9.15625 -8.578125 -8.457031 -8.578125 -7.0625 Z M -8.578125 -7.0625 "/></g></g></g><g fill="#000000" fill-opacity="1"><g transform="translate(156.653032, 203.266555)"><g><path d="M -10.015625 -5.484375 C -10.472656 -5.941406 -10.820312 -6.472656 -11.0625 -7.078125 C -11.3125 -7.679688 -11.4375 -8.316406 -11.4375 -8.984375 C -11.4375 -10.285156 -11.078125 -11.257812 -10.359375 -11.90625 C -9.640625 -12.550781 -8.601562 -12.875 -7.25 -12.875 L 0 -12.875 L 0 -8.671875 L -6.734375 -8.671875 C -7.210938 -8.671875 -7.597656 -8.546875 -7.890625 -8.296875 C -8.179688 -8.046875 -8.328125 -7.695312 -8.328125 -7.25 C -8.328125 -6.726562 -8.15625 -6.300781 -7.8125 -5.96875 C -7.476562 -5.644531 -7.0625 -5.484375 -6.5625 -5.484375 L 0 -5.484375 L 0 -1.265625 L -15.359375 -1.265625 L -15.359375 -5.484375 Z M -10.015625 -5.484375 "/></g></g></g><g fill="#000000" fill-opacity="1"><g transform="translate(156.653032, 189.135146)"><g><path d="M -12.5 -1.421875 L -15.359375 -1.421875 L -15.359375 -5.640625 L -12.5 -5.640625 Z M 0 -1.421875 L -11.1875 -1.421875 L -11.1875 -5.640625 L 0 -5.640625 Z M 0 -1.421875 "/></g></g></g><g fill="#000000" fill-opacity="1"><g transform="translate(156.653032, 182.080038)"><g><path d="M -11.1875 -8.734375 L -8.328125 -8.734375 L -8.328125 -6.359375 L -4.0625 -6.359375 C -3.5625 -6.359375 -3.191406 -6.441406 -2.953125 -6.609375 C -2.722656 -6.773438 -2.609375 -7.085938 -2.609375 -7.546875 L -2.609375 -8.734375 L -0.125 -8.734375 C -0.0078125 -8.390625 0.078125 -7.945312 0.140625 -7.40625 C 0.210938 -6.875 0.25 -6.410156 0.25 -6.015625 C 0.25 -4.773438 0.0234375 -3.816406 -0.421875 -3.140625 C -0.878906 -2.472656 -1.648438 -2.140625 -2.734375 -2.140625 L -8.328125 -2.140625 L -8.328125 -0.578125 L -11.1875 -0.578125 L -11.1875 -2.3125 L -14.578125 -3.21875 L -14.578125 -6.359375 L -11.1875 -6.359375 Z M -11.1875 -8.734375 "/></g></g></g><g fill="#000000" fill-opacity="1"><g transform="translate(156.653032, 172.673219)"><g><path d="M -10.015625 -5.484375 C -10.472656 -5.941406 -10.820312 -6.472656 -11.0625 -7.078125 C -11.3125 -7.679688 -11.4375 -8.316406 -11.4375 -8.984375 C -11.4375 -10.285156 -11.078125 -11.257812 -10.359375 -11.90625 C -9.640625 -12.550781 -8.601562 -12.875 -7.25 -12.875 L 0 -12.875 L 0 -8.671875 L -6.734375 -8.671875 C -7.210938 -8.671875 -7.597656 -8.546875 -7.890625 -8.296875 C -8.179688 -8.046875 -8.328125 -7.695312 -8.328125 -7.25 C -8.328125 -6.726562 -8.15625 -6.300781 -7.8125 -5.96875 C -7.476562 -5.644531 -7.0625 -5.484375 -6.5625 -5.484375 L 0 -5.484375 L 0 -1.265625 L -15.359375 -1.265625 L -15.359375 -5.484375 Z M -10.015625 -5.484375 "/></g></g></g></svg>